<mxfile host="app.diagrams.net" modified="2022-08-29T18:16:09.923Z" agent="5.0 (Macintosh)" etag="spQ_TLBPmU4AP_j8YQug" version="20.2.7" type="github">
  <diagram id="FFXtlg2HfYRVedAv5AXh" name="Page-1">
    <mxGraphModel dx="1666" dy="820" grid="1" gridSize="10" guides="1" tooltips="1" connect="1" arrows="1" fold="1" page="1" pageScale="1" pageWidth="850" pageHeight="1100" math="0" shadow="0">
      <root>
        <mxCell id="0" />
        <mxCell id="1" parent="0" />
        <mxCell id="K-W0vwILRseSUtwOl_9f-39" value="AWS Cloud" style="sketch=0;outlineConnect=0;gradientColor=none;html=1;whiteSpace=wrap;fontSize=12;fontStyle=0;shape=mxgraph.aws4.group;grIcon=mxgraph.aws4.group_aws_cloud;strokeColor=#AAB7B8;fillColor=none;verticalAlign=top;align=left;spacingLeft=30;fontColor=#AAB7B8;dashed=0;" vertex="1" parent="1">
          <mxGeometry x="160" y="20" width="1100" height="740" as="geometry" />
        </mxCell>
        <mxCell id="K-W0vwILRseSUtwOl_9f-5" value="Region" style="sketch=0;outlineConnect=0;gradientColor=none;html=1;whiteSpace=wrap;fontSize=12;fontStyle=0;shape=mxgraph.aws4.group;grIcon=mxgraph.aws4.group_region;strokeColor=#879196;fillColor=none;verticalAlign=top;align=left;spacingLeft=30;fontColor=#879196;dashed=1;" vertex="1" parent="1">
          <mxGeometry x="170" y="50" width="1080" height="700" as="geometry" />
        </mxCell>
        <mxCell id="K-W0vwILRseSUtwOl_9f-2" value="Traditional&#xa;server" style="sketch=0;outlineConnect=0;fontColor=#232F3E;gradientColor=none;strokeColor=#232F3E;fillColor=#ffffff;dashed=0;verticalLabelPosition=bottom;verticalAlign=top;align=center;html=1;fontSize=12;fontStyle=0;aspect=fixed;shape=mxgraph.aws4.resourceIcon;resIcon=mxgraph.aws4.traditional_server;" vertex="1" parent="1">
          <mxGeometry x="40" y="79" width="60" height="60" as="geometry" />
        </mxCell>
        <mxCell id="K-W0vwILRseSUtwOl_9f-16" value="Corporate data center" style="points=[[0,0],[0.25,0],[0.5,0],[0.75,0],[1,0],[1,0.25],[1,0.5],[1,0.75],[1,1],[0.75,1],[0.5,1],[0.25,1],[0,1],[0,0.75],[0,0.5],[0,0.25]];outlineConnect=0;gradientColor=none;html=1;whiteSpace=wrap;fontSize=12;fontStyle=0;container=1;pointerEvents=0;collapsible=0;recursiveResize=0;shape=mxgraph.aws4.group;grIcon=mxgraph.aws4.group_corporate_data_center;strokeColor=#5A6C86;fillColor=none;verticalAlign=top;align=left;spacingLeft=30;fontColor=#5A6C86;dashed=0;" vertex="1" parent="1">
          <mxGeometry x="10" y="40" width="130" height="290" as="geometry" />
        </mxCell>
        <mxCell id="K-W0vwILRseSUtwOl_9f-14" value="" style="edgeStyle=orthogonalEdgeStyle;rounded=0;orthogonalLoop=1;jettySize=auto;html=1;" edge="1" parent="1" source="K-W0vwILRseSUtwOl_9f-2" target="K-W0vwILRseSUtwOl_9f-3">
          <mxGeometry relative="1" as="geometry" />
        </mxCell>
        <mxCell id="K-W0vwILRseSUtwOl_9f-15" value="" style="edgeStyle=orthogonalEdgeStyle;rounded=0;orthogonalLoop=1;jettySize=auto;html=1;" edge="1" parent="1" source="K-W0vwILRseSUtwOl_9f-2" target="K-W0vwILRseSUtwOl_9f-6">
          <mxGeometry relative="1" as="geometry" />
        </mxCell>
        <mxCell id="K-W0vwILRseSUtwOl_9f-13" style="edgeStyle=orthogonalEdgeStyle;rounded=0;orthogonalLoop=1;jettySize=auto;html=1;" edge="1" parent="1" source="K-W0vwILRseSUtwOl_9f-3" target="K-W0vwILRseSUtwOl_9f-18">
          <mxGeometry relative="1" as="geometry">
            <mxPoint x="280" y="273" as="targetPoint" />
          </mxGeometry>
        </mxCell>
        <mxCell id="K-W0vwILRseSUtwOl_9f-3" value="Oracle DB " style="outlineConnect=0;dashed=0;verticalLabelPosition=bottom;verticalAlign=top;align=center;html=1;shape=mxgraph.aws3.oracle_db_instance;fillColor=#2E73B8;gradientColor=none;" vertex="1" parent="1">
          <mxGeometry x="40" y="240" width="60" height="64.5" as="geometry" />
        </mxCell>
        <mxCell id="K-W0vwILRseSUtwOl_9f-11" value="" style="edgeStyle=orthogonalEdgeStyle;rounded=0;orthogonalLoop=1;jettySize=auto;html=1;" edge="1" parent="1" source="K-W0vwILRseSUtwOl_9f-4" target="K-W0vwILRseSUtwOl_9f-8">
          <mxGeometry relative="1" as="geometry" />
        </mxCell>
        <mxCell id="K-W0vwILRseSUtwOl_9f-4" value="Amazon Kinesis" style="sketch=0;points=[[0,0,0],[0.25,0,0],[0.5,0,0],[0.75,0,0],[1,0,0],[0,1,0],[0.25,1,0],[0.5,1,0],[0.75,1,0],[1,1,0],[0,0.25,0],[0,0.5,0],[0,0.75,0],[1,0.25,0],[1,0.5,0],[1,0.75,0]];outlineConnect=0;fontColor=#232F3E;gradientColor=#945DF2;gradientDirection=north;fillColor=#5A30B5;strokeColor=#ffffff;dashed=0;verticalLabelPosition=bottom;verticalAlign=top;align=center;html=1;fontSize=12;fontStyle=0;aspect=fixed;shape=mxgraph.aws4.resourceIcon;resIcon=mxgraph.aws4.kinesis;" vertex="1" parent="1">
          <mxGeometry x="473" y="70" width="78" height="78" as="geometry" />
        </mxCell>
        <mxCell id="K-W0vwILRseSUtwOl_9f-9" value="" style="edgeStyle=orthogonalEdgeStyle;rounded=0;orthogonalLoop=1;jettySize=auto;html=1;" edge="1" parent="1" source="K-W0vwILRseSUtwOl_9f-6" target="K-W0vwILRseSUtwOl_9f-7">
          <mxGeometry relative="1" as="geometry" />
        </mxCell>
        <mxCell id="K-W0vwILRseSUtwOl_9f-6" value="Regional Endpoint" style="sketch=0;outlineConnect=0;fontColor=#232F3E;gradientColor=none;fillColor=#4D27AA;strokeColor=none;dashed=0;verticalLabelPosition=bottom;verticalAlign=top;align=center;html=1;fontSize=12;fontStyle=0;aspect=fixed;pointerEvents=1;shape=mxgraph.aws4.endpoint;" vertex="1" parent="1">
          <mxGeometry x="200" y="70" width="78" height="78" as="geometry" />
        </mxCell>
        <mxCell id="K-W0vwILRseSUtwOl_9f-10" value="" style="edgeStyle=orthogonalEdgeStyle;rounded=0;orthogonalLoop=1;jettySize=auto;html=1;" edge="1" parent="1" source="K-W0vwILRseSUtwOl_9f-7" target="K-W0vwILRseSUtwOl_9f-4">
          <mxGeometry relative="1" as="geometry" />
        </mxCell>
        <mxCell id="K-W0vwILRseSUtwOl_9f-7" value="API Gateway" style="sketch=0;points=[[0,0,0],[0.25,0,0],[0.5,0,0],[0.75,0,0],[1,0,0],[0,1,0],[0.25,1,0],[0.5,1,0],[0.75,1,0],[1,1,0],[0,0.25,0],[0,0.5,0],[0,0.75,0],[1,0.25,0],[1,0.5,0],[1,0.75,0]];outlineConnect=0;fontColor=#232F3E;gradientColor=#945DF2;gradientDirection=north;fillColor=#5A30B5;strokeColor=#ffffff;dashed=0;verticalLabelPosition=bottom;verticalAlign=top;align=center;html=1;fontSize=12;fontStyle=0;aspect=fixed;shape=mxgraph.aws4.resourceIcon;resIcon=mxgraph.aws4.api_gateway;" vertex="1" parent="1">
          <mxGeometry x="329" y="70" width="78" height="78" as="geometry" />
        </mxCell>
        <mxCell id="K-W0vwILRseSUtwOl_9f-21" value="" style="edgeStyle=orthogonalEdgeStyle;rounded=0;orthogonalLoop=1;jettySize=auto;html=1;" edge="1" parent="1" source="K-W0vwILRseSUtwOl_9f-8" target="K-W0vwILRseSUtwOl_9f-20">
          <mxGeometry relative="1" as="geometry" />
        </mxCell>
        <mxCell id="K-W0vwILRseSUtwOl_9f-8" value="S3 DataLake" style="sketch=0;points=[[0,0,0],[0.25,0,0],[0.5,0,0],[0.75,0,0],[1,0,0],[0,1,0],[0.25,1,0],[0.5,1,0],[0.75,1,0],[1,1,0],[0,0.25,0],[0,0.5,0],[0,0.75,0],[1,0.25,0],[1,0.5,0],[1,0.75,0]];outlineConnect=0;fontColor=#232F3E;gradientColor=#60A337;gradientDirection=north;fillColor=#277116;strokeColor=#ffffff;dashed=0;verticalLabelPosition=bottom;verticalAlign=top;align=center;html=1;fontSize=12;fontStyle=0;aspect=fixed;shape=mxgraph.aws4.resourceIcon;resIcon=mxgraph.aws4.s3;" vertex="1" parent="1">
          <mxGeometry x="473" y="226.5" width="78" height="78" as="geometry" />
        </mxCell>
        <mxCell id="K-W0vwILRseSUtwOl_9f-19" style="edgeStyle=orthogonalEdgeStyle;rounded=0;orthogonalLoop=1;jettySize=auto;html=1;entryX=0;entryY=0.596;entryDx=0;entryDy=0;entryPerimeter=0;" edge="1" parent="1" source="K-W0vwILRseSUtwOl_9f-18" target="K-W0vwILRseSUtwOl_9f-8">
          <mxGeometry relative="1" as="geometry" />
        </mxCell>
        <mxCell id="K-W0vwILRseSUtwOl_9f-18" value="DMS" style="sketch=0;points=[[0,0,0],[0.25,0,0],[0.5,0,0],[0.75,0,0],[1,0,0],[0,1,0],[0.25,1,0],[0.5,1,0],[0.75,1,0],[1,1,0],[0,0.25,0],[0,0.5,0],[0,0.75,0],[1,0.25,0],[1,0.5,0],[1,0.75,0]];outlineConnect=0;fontColor=#232F3E;gradientColor=#4D72F3;gradientDirection=north;fillColor=#3334B9;strokeColor=#ffffff;dashed=0;verticalLabelPosition=bottom;verticalAlign=top;align=center;html=1;fontSize=12;fontStyle=0;aspect=fixed;shape=mxgraph.aws4.resourceIcon;resIcon=mxgraph.aws4.database_migration_service;" vertex="1" parent="1">
          <mxGeometry x="241" y="234" width="78" height="78" as="geometry" />
        </mxCell>
        <mxCell id="K-W0vwILRseSUtwOl_9f-25" value="" style="edgeStyle=orthogonalEdgeStyle;rounded=0;orthogonalLoop=1;jettySize=auto;html=1;" edge="1" parent="1" source="K-W0vwILRseSUtwOl_9f-20" target="K-W0vwILRseSUtwOl_9f-22">
          <mxGeometry relative="1" as="geometry" />
        </mxCell>
        <mxCell id="K-W0vwILRseSUtwOl_9f-20" value="AWS Glue" style="sketch=0;points=[[0,0,0],[0.25,0,0],[0.5,0,0],[0.75,0,0],[1,0,0],[0,1,0],[0.25,1,0],[0.5,1,0],[0.75,1,0],[1,1,0],[0,0.25,0],[0,0.5,0],[0,0.75,0],[1,0.25,0],[1,0.5,0],[1,0.75,0]];outlineConnect=0;fontColor=#232F3E;gradientColor=#945DF2;gradientDirection=north;fillColor=#5A30B5;strokeColor=#ffffff;dashed=0;verticalLabelPosition=bottom;verticalAlign=top;align=center;html=1;fontSize=12;fontStyle=0;aspect=fixed;shape=mxgraph.aws4.resourceIcon;resIcon=mxgraph.aws4.glue;" vertex="1" parent="1">
          <mxGeometry x="627" y="226.5" width="78" height="78" as="geometry" />
        </mxCell>
        <mxCell id="K-W0vwILRseSUtwOl_9f-26" value="" style="edgeStyle=orthogonalEdgeStyle;rounded=0;orthogonalLoop=1;jettySize=auto;html=1;" edge="1" parent="1" source="K-W0vwILRseSUtwOl_9f-22" target="K-W0vwILRseSUtwOl_9f-23">
          <mxGeometry relative="1" as="geometry" />
        </mxCell>
        <mxCell id="K-W0vwILRseSUtwOl_9f-22" value="&lt;div&gt;Glue Data&lt;/div&gt;&lt;div&gt;Catalog&lt;br&gt;&lt;/div&gt;" style="sketch=0;outlineConnect=0;fontColor=#232F3E;gradientColor=none;fillColor=#4D27AA;strokeColor=none;dashed=0;verticalLabelPosition=bottom;verticalAlign=top;align=center;html=1;fontSize=12;fontStyle=0;aspect=fixed;pointerEvents=1;shape=mxgraph.aws4.glue_data_catalog;" vertex="1" parent="1">
          <mxGeometry x="771" y="226.5" width="72" height="78" as="geometry" />
        </mxCell>
        <mxCell id="K-W0vwILRseSUtwOl_9f-27" value="" style="edgeStyle=orthogonalEdgeStyle;rounded=0;orthogonalLoop=1;jettySize=auto;html=1;" edge="1" parent="1" source="K-W0vwILRseSUtwOl_9f-23" target="K-W0vwILRseSUtwOl_9f-24">
          <mxGeometry relative="1" as="geometry" />
        </mxCell>
        <mxCell id="K-W0vwILRseSUtwOl_9f-32" value="" style="edgeStyle=orthogonalEdgeStyle;rounded=0;orthogonalLoop=1;jettySize=auto;html=1;" edge="1" parent="1" source="K-W0vwILRseSUtwOl_9f-23" target="K-W0vwILRseSUtwOl_9f-29">
          <mxGeometry relative="1" as="geometry" />
        </mxCell>
        <mxCell id="K-W0vwILRseSUtwOl_9f-23" value="Training Data" style="sketch=0;points=[[0,0,0],[0.25,0,0],[0.5,0,0],[0.75,0,0],[1,0,0],[0,1,0],[0.25,1,0],[0.5,1,0],[0.75,1,0],[1,1,0],[0,0.25,0],[0,0.5,0],[0,0.75,0],[1,0.25,0],[1,0.5,0],[1,0.75,0]];outlineConnect=0;fontColor=#232F3E;gradientColor=#60A337;gradientDirection=north;fillColor=#277116;strokeColor=#ffffff;dashed=0;verticalLabelPosition=bottom;verticalAlign=top;align=center;html=1;fontSize=12;fontStyle=0;aspect=fixed;shape=mxgraph.aws4.resourceIcon;resIcon=mxgraph.aws4.s3;" vertex="1" parent="1">
          <mxGeometry x="915" y="227.25" width="78" height="78" as="geometry" />
        </mxCell>
        <mxCell id="K-W0vwILRseSUtwOl_9f-31" value="" style="edgeStyle=orthogonalEdgeStyle;rounded=0;orthogonalLoop=1;jettySize=auto;html=1;" edge="1" parent="1" source="K-W0vwILRseSUtwOl_9f-24" target="K-W0vwILRseSUtwOl_9f-30">
          <mxGeometry relative="1" as="geometry" />
        </mxCell>
        <mxCell id="K-W0vwILRseSUtwOl_9f-24" value="Amazon Athena" style="sketch=0;points=[[0,0,0],[0.25,0,0],[0.5,0,0],[0.75,0,0],[1,0,0],[0,1,0],[0.25,1,0],[0.5,1,0],[0.75,1,0],[1,1,0],[0,0.25,0],[0,0.5,0],[0,0.75,0],[1,0.25,0],[1,0.5,0],[1,0.75,0]];outlineConnect=0;fontColor=#232F3E;gradientColor=#945DF2;gradientDirection=north;fillColor=#5A30B5;strokeColor=#ffffff;dashed=0;verticalLabelPosition=bottom;verticalAlign=top;align=center;html=1;fontSize=12;fontStyle=0;aspect=fixed;shape=mxgraph.aws4.resourceIcon;resIcon=mxgraph.aws4.athena;" vertex="1" parent="1">
          <mxGeometry x="915" y="70" width="78" height="78" as="geometry" />
        </mxCell>
        <mxCell id="K-W0vwILRseSUtwOl_9f-34" value="" style="edgeStyle=orthogonalEdgeStyle;rounded=0;orthogonalLoop=1;jettySize=auto;html=1;" edge="1" parent="1" source="K-W0vwILRseSUtwOl_9f-29" target="K-W0vwILRseSUtwOl_9f-33">
          <mxGeometry relative="1" as="geometry" />
        </mxCell>
        <mxCell id="K-W0vwILRseSUtwOl_9f-29" value="&lt;div&gt;Amazon &lt;br&gt;&lt;/div&gt;&lt;div&gt;Personalize&lt;br&gt;&lt;/div&gt;" style="sketch=0;points=[[0,0,0],[0.25,0,0],[0.5,0,0],[0.75,0,0],[1,0,0],[0,1,0],[0.25,1,0],[0.5,1,0],[0.75,1,0],[1,1,0],[0,0.25,0],[0,0.5,0],[0,0.75,0],[1,0.25,0],[1,0.5,0],[1,0.75,0]];outlineConnect=0;fontColor=#232F3E;gradientColor=#4AB29A;gradientDirection=north;fillColor=#116D5B;strokeColor=#ffffff;dashed=0;verticalLabelPosition=bottom;verticalAlign=top;align=center;html=1;fontSize=12;fontStyle=0;aspect=fixed;shape=mxgraph.aws4.resourceIcon;resIcon=mxgraph.aws4.personalize;" vertex="1" parent="1">
          <mxGeometry x="1060" y="227.25" width="78" height="78" as="geometry" />
        </mxCell>
        <mxCell id="K-W0vwILRseSUtwOl_9f-30" value="&lt;div&gt;Amazon &lt;br&gt;&lt;/div&gt;&lt;div&gt;QuickSight&lt;/div&gt;&lt;div&gt;&lt;br&gt;&lt;/div&gt;" style="sketch=0;points=[[0,0,0],[0.25,0,0],[0.5,0,0],[0.75,0,0],[1,0,0],[0,1,0],[0.25,1,0],[0.5,1,0],[0.75,1,0],[1,1,0],[0,0.25,0],[0,0.5,0],[0,0.75,0],[1,0.25,0],[1,0.5,0],[1,0.75,0]];outlineConnect=0;fontColor=#232F3E;gradientColor=#945DF2;gradientDirection=north;fillColor=#5A30B5;strokeColor=#ffffff;dashed=0;verticalLabelPosition=bottom;verticalAlign=top;align=center;html=1;fontSize=12;fontStyle=0;aspect=fixed;shape=mxgraph.aws4.resourceIcon;resIcon=mxgraph.aws4.quicksight;" vertex="1" parent="1">
          <mxGeometry x="1050" y="70" width="78" height="78" as="geometry" />
        </mxCell>
        <mxCell id="K-W0vwILRseSUtwOl_9f-33" value="" style="sketch=0;html=1;dashed=0;whitespace=wrap;fillColor=#2875E2;strokeColor=#ffffff;points=[[0.005,0.63,0],[0.1,0.2,0],[0.9,0.2,0],[0.5,0,0],[0.995,0.63,0],[0.72,0.99,0],[0.5,1,0],[0.28,0.99,0]];shape=mxgraph.kubernetes.icon;prIcon=api" vertex="1" parent="1">
          <mxGeometry x="1190" y="241.5" width="50" height="48" as="geometry" />
        </mxCell>
        <mxCell id="K-W0vwILRseSUtwOl_9f-37" value="Recommendation API" style="whiteSpace=wrap;html=1;" vertex="1" parent="1">
          <mxGeometry x="1167" y="290" width="90" height="29.5" as="geometry" />
        </mxCell>
        <mxCell id="K-W0vwILRseSUtwOl_9f-40" value="" style="sketch=0;points=[[0,0,0],[0.25,0,0],[0.5,0,0],[0.75,0,0],[1,0,0],[0,1,0],[0.25,1,0],[0.5,1,0],[0.75,1,0],[1,1,0],[0,0.25,0],[0,0.5,0],[0,0.75,0],[1,0.25,0],[1,0.5,0],[1,0.75,0]];outlineConnect=0;fontColor=#232F3E;gradientColor=#60A337;gradientDirection=north;fillColor=#277116;strokeColor=#ffffff;dashed=0;verticalLabelPosition=bottom;verticalAlign=top;align=center;html=1;fontSize=12;fontStyle=0;aspect=fixed;shape=mxgraph.aws4.resourceIcon;resIcon=mxgraph.aws4.iot_events;" vertex="1" parent="1">
          <mxGeometry x="580" y="370" width="78" height="78" as="geometry" />
        </mxCell>
      </root>
    </mxGraphModel>
  </diagram>
</mxfile>
